<?xml version="1.0" standalone="no"?><!DOCTYPE svg PUBLIC "-//W3C//DTD SVG 1.1//EN" "http://www.w3.org/Graphics/SVG/1.1/DTD/svg11.dtd"><svg t="1622121162551" class="icon" viewBox="0 0 1024 1024" version="1.1" xmlns="http://www.w3.org/2000/svg" p-id="12951" xmlns:xlink="http://www.w3.org/1999/xlink" width="200" height="200"><defs><style type="text/css">@font-face { font-family: Georgia; src: local("Source Serif Pro"); }
@font-face { font-family: Times; src: local("Source Serif Pro"); }
@font-face { font-family: "Time New Roman"; src: local("Source Serif Pro"); }
@font-face { font-family: Arial; }
@font-face { font-family: Helvetica; }
@font-face { font-family: "Helvetica Neue"; }
@font-face { font-family: "Open Sans"; }
@font-face { font-family: "Segoe UI"; }
@font-face { font-family: Tahoma; }
@font-face { font-family: Trebuchet; }
@font-face { font-family: "Trebuchet MS"; }
@font-face { font-family: Ubuntu; }
@font-face { font-family: Verdana; }
@font-face { font-family: Consolas; src: local("Source Code Pro"); }
@font-face { font-family: Courier; src: local("Source Code Pro"); }
@font-face { font-family: "Courier New"; src: local("Source Code Pro"); }
@font-face { font-family: "Lucida Console"; src: local("Source Code Pro"); }
@font-face { font-family: "Ubuntu Mono"; src: local("Source Code Pro"); }
@font-face { font-family: SimSun; src: local("Source Han Sans SC"); }
@font-face { font-family: SimSun-ExtB; src: local("Source Han Sans SC"); }
@font-face { font-family: 宋体; src: local("Source Han Sans SC"); }
@font-face { font-family: NSimSun; src: local("Source Han Sans SC"); }
@font-face { font-family: 新宋体; src: local("Source Han Sans SC"); }
@font-face { font-family: SimHei; src: local("Source Han Sans SC"); }
@font-face { font-family: 黑体; src: local("Source Han Sans SC"); }
@font-face { font-family: "Microsoft YaHei UI"; src: local("Source Han Sans SC"); }
@font-face { font-family: "Microsoft YaHei"; src: local("Source Han Sans SC"); }
@font-face { font-family: 微软雅黑; src: local("Source Han Sans SC"); }
@font-face { font-family: "STHeiti SC"; src: local("Source Han Sans SC"); }
@font-face { font-family: "PingFang SC"; src: local("Source Han Sans SC"); }
@font-face { font-family: 苹方-简; src: local("Source Han Sans SC"); }
@font-face { font-family: MingLiU; src: local("Source Han Sans TC"); }
@font-face { font-family: MingLiU-ExtB; src: local("Source Han Sans TC"); }
@font-face { font-family: PMingLiU; src: local("Source Han Sans TC"); }
@font-face { font-family: PMingLiU-ExtB; src: local("Source Han Sans TC"); }
@font-face { font-family: "Microsoft JhengHei UI"; src: local("Source Han Sans TC"); }
@font-face { font-family: "Microsoft JhengHei"; src: local("Source Han Sans TC"); }
@font-face { font-family: 微軟正黑體; src: local("Source Han Sans TC"); }
@font-face { font-family: "STHeiti TC"; src: local("Source Han Sans TC"); }
@font-face { font-family: "PingFang TC"; src: local("Source Han Sans TC"); }
@font-face { font-family: 蘋方-繁; src: local("Source Han Sans TC"); }
@font-face { font-family: MingLiU_HKSCS; src: local("Source Han Sans HC"); }
@font-face { font-family: MingLiU_HKSCS-ExtB; src: local("Source Han Sans HC"); }
@font-face { font-family: "PingFang HK"; src: local("Source Han Sans HC"); }
@font-face { font-family: 蘋方-港; src: local("Source Han Sans HC"); }
@font-face { font-family: "MS Gothic"; src: local("Source Han Sans"); }
@font-face { font-family: "MS PGothic"; src: local("Source Han Sans"); }
@font-face { font-family: "MS UI Gothic"; src: local("Source Han Sans"); }
@font-face { font-family: "Yu Gothic"; src: local("Source Han Sans"); }
@font-face { font-family: "Yu Gothic UI"; src: local("Source Han Sans"); }
@font-face { font-family: "Malgun Gothic"; src: local("Source Han Sans K"); }
</style></defs><path d="M512 512.002m-511.998 0a511.998 511.998 0 1 0 1023.996 0 511.998 511.998 0 1 0-1023.996 0Z" fill="#CDCCCA" p-id="12952"></path><path d="M512 512.002m-407.00441 0a407.00441 407.00441 0 1 0 814.00882 0 407.00441 407.00441 0 1 0-814.00882 0Z" fill="#E8E9EC" p-id="12953"></path><path d="M772.094984 502.150038a42.159835 42.159835 0 0 0 18.707927 4.391983c23.421909 0 42.413834-18.989926 42.413834-42.413834 0-15.38994-8.221968-28.823887-20.48792-36.257858 2.405991-7.981969 4.125984-16.169937 4.743982-24.523905 0.441998-6.235976 0.309999-12.553951-0.757997-18.757926-1.051996-6.197976-2.973988-12.265952-5.777978-17.861931-0.339999-0.703997-0.743997-1.375995-1.115995-2.061991-0.415998-0.721997-0.675997-1.275995-1.219996-2.129992l-1.171995-1.809993-0.585998-0.903997-0.713997-0.973996c-0.951996-1.307995-1.909993-2.59599-2.923989-3.727985-0.971996-1.199995-2.035992-2.305991-3.111987-3.395987-4.291983-4.373983-9.173964-8.005969-14.303944-10.963957-10.28596-5.941977-21.391916-9.381963-32.355874-11.551955-11.003957-2.085992-21.947914-2.959988-32.657873-3.051988-21.439916-0.243999-41.959836 2.259991-61.35176 5.775977-19.411924 3.637986-37.745853 8.197968-54.965785 13.249949-4.237983-17.437932-9.455963-35.595861-16.011938-54.225789-6.647974-18.549928-14.741942-37.575853-25.671899-56.019781-5.435979-9.229964-11.663954-18.269929-18.971926-26.755895-7.361971-8.409967-15.893938-16.307936-26.183898-22.245913-5.12598-2.963988-10.713958-5.373979-16.647935-6.905973a47.739814 47.739814 0 0 0-4.495982-0.995996c-1.487994-0.309999-3.083988-0.499998-4.691982-0.667998l-1.201995-0.131999-1.075996-0.056-2.153992-0.11c-1.011996-0.046-1.621994 0.008-2.45599 0.008-0.777997 0.022-1.561994 0.008-2.339991 0.064-6.247976 0.371999-12.461951 1.739993-18.357928 3.927985-5.907977 2.175992-11.445955 5.21998-16.623935 8.721966-10.36196 7.053972-19.201925 16.023937-27.005895 25.729899-7.831969 9.719962-14.555943 20.303921-20.637919 31.283878-12.089953 22.015914-21.541916 45.667822-29.389885 70.039726a553.869836 553.869836 0 0 0-7.71197 26.559897c-15.37994-4.331983-31.567877-8.269968-48.64181-11.469956-9.733962-1.763993-19.751923-3.273987-30.029883-4.307983-0.681997-22.829911-19.357924-41.137839-42.349835-41.137839-23.425908 0-42.415834 18.989926-42.415834 42.415834 0 2.075992 0.199999 4.099984 0.485998 6.093976a88.565654 88.565654 0 0 0-12.055953 5.763978c-5.12998 2.957988-10.011961 6.591974-14.303944 10.963957a47.759813 47.759813 0 0 0-3.111988 3.395987c-1.013996 1.131996-1.971992 2.419991-2.923988 3.727985l-0.713997 0.973996-0.585998 0.903997-1.171996 1.809993c-0.543998 0.853997-0.803997 1.407995-1.219995 2.129992-0.371999 0.685997-0.775997 1.357995-1.115995 2.061991-2.801989 5.595978-4.723982 11.663954-5.777978 17.861931-1.067996 6.203976-1.199995 12.521951-0.757997 18.757926 0.927996 12.499951 4.277983 24.639904 8.781966 36.251859 4.501982 11.641955 10.30596 22.757911 16.773934 33.513869 13.021949 21.477916 28.779888 41.491838 45.959821 60.471764a555.755829 555.755829 0 0 0 19.129925 19.943922 560.69781 560.69781 0 0 0-34.221866 36.421858c-12.73795 15.033941-25.165902 31.555877-35.669861 50.243803-5.263979 9.325964-9.983961 19.235925-13.673947 29.805884-3.599986 10.577959-6.173976 21.913914-6.167975 33.785868-0.002 5.919977 0.703997 11.957953 2.34399 17.85793 0.405998 1.475994 0.833997 2.947988 1.383995 4.389983 0.483998 1.461994 1.097996 2.879989 1.721993 4.297983 0.573998 1.441994 1.373995 2.781989 2.057992 4.177984 0.022 0.054 0.269999 0.513998 0.347999 0.631997l0.277999 0.461999 0.553998 0.925996c0.385998 0.625998 0.701997 1.213995 1.147995 1.875993 7.029973 10.745958 17.215933 18.657927 28.503889 24.063906 11.283956 5.441979 23.465908 8.609966 35.77186 10.513959 12.329952 1.911993 24.855903 2.45999 37.401854 2.233991 25.107902-0.539998 50.313803-4.181984 75.339706-9.571963a532.297921 532.297921 0 0 0 20.643919-4.937981 532.059922 532.059922 0 0 0 6.045976 20.345921 501.76804 501.76804 0 0 0 7.929969 22.735911c-11.425955 7.59997-18.963926 20.58192-18.963926 35.333862 0 23.423909 18.989926 42.413834 42.415835 42.413834a42.239835 42.239835 0 0 0 15.697938-3.035988c0.977996 1.287995 1.925992 2.59999 2.939989 3.859985 7.79797 9.705962 16.633935 18.671927 26.989895 25.7219 10.32396 7.073972 22.271913 11.939953 35.091862 12.65395 0.795997 0.056 1.461994 0.036 2.199992 0.056l1.079996 0.016 0.539998 0.01c0.139999 0.008 0.663997-0.008 0.719997-0.016 1.551994-0.106 3.111988-0.082 4.647982-0.305999 1.539994-0.167999 3.073988-0.345999 4.583982-0.657997a47.837813 47.837813 0 0 0 4.493982-0.995996c5.929977-1.529994 11.511955-3.935985 16.635935-6.899973 10.28596-5.931977 18.813927-13.827946 26.175898-22.233913 7.309971-8.481967 13.531947-17.523932 18.975926-26.745896 10.931957-18.441928 19.025926-37.463854 25.675899-56.013781 5.767977-16.381936 10.499959-32.399873 14.441944-47.883813a544.769872 544.769872 0 0 0 26.841895 6.577974c25.025902 5.389979 50.231804 9.031965 75.339706 9.571963 12.545951 0.225999 25.071902-0.321999 37.401854-2.233991 12.303952-1.903993 24.487904-5.07198 35.77186-10.513959 11.287956-5.405979 21.473916-13.317948 28.503889-24.063906 0.447998-0.661997 0.761997-1.249995 1.147995-1.875993l0.553998-0.925996 0.277999-0.461999c0.078-0.118 0.325999-0.577998 0.347999-0.631997 0.685997-1.395995 1.483994-2.735989 2.057992-4.177984 0.625998-1.417994 1.237995-2.835989 1.721993-4.297983 0.549998-1.441994 0.977996-2.913989 1.383994-4.389983 1.639994-5.899977 2.345991-11.937953 2.343991-17.85793 0.006-11.871954-2.56799-23.207909-6.167976-33.785868-3.687986-10.569959-8.409967-20.47992-13.671946-29.805884-10.505959-18.687927-22.93191-35.207862-35.669861-50.243803a560.69781 560.69781 0 0 0-34.221866-36.421858 555.683829 555.683829 0 0 0 19.129925-19.943922c9.195964-10.15596 17.95993-20.619919 26.137898-31.431878z m-387.190488-180.919293c6.925973-23.895907 15.42394-47.043816 26.351898-68.397733 5.513978-10.629958 11.565955-20.859919 18.531927-30.179882 6.953973-9.303964 14.799942-17.781931 23.769907-24.351905 8.919965-6.605974 19.113925-11.035957 29.661884-12.007953 0.655997-0.074 1.315995-0.078 1.973993-0.121999 0.607998-0.024 1.435994-0.094 1.861992-0.084l2.153992 0.034 1.073996 0.018 0.941996 0.082c1.245995 0.096 2.50199 0.185999 3.821985 0.415998a39.619845 39.619845 0 0 1 3.885985 0.717997c5.15198 1.133996 10.13396 3.063988 14.829942 5.565978 9.419963 4.99398 17.689931 12.055953 24.963903 19.813923 7.237972 7.831969 13.581947 16.363936 19.193925 25.175902 11.189956 17.673931 19.749923 36.223859 26.869895 54.401787 7.131972 18.287929 12.75195 36.255858 17.327932 53.571791-16.291936 4.847981-31.603877 10.107961-45.841821 15.43194a925.768384 925.768384 0 0 0-69.469729 29.599884 926.126382 926.126382 0 0 0-69.469728-29.599884 717.923196 717.923196 0 0 0-39.525846-13.507948 583.089722 583.089722 0 0 1 7.091972-26.577896z m175.975313 109.035574a1038.695943 1038.695943 0 0 1 12.025953 7.177972c10.467959 6.391975 25.761899 15.885938 44.627826 28.857888 1.835993 1.261995 3.735985 2.58599 5.639978 3.915984 0.199999 2.315991 0.397998 4.625982 0.573997 6.849973 1.799993 22.825911 2.375991 40.817841 2.67799 53.079793 0.116 6.131976 0.193999 10.833958 0.203999 14.003945l0.04 4.803982-0.008-4.803982c0.012-3.169988-0.038-7.873969-0.111999-14.005945-0.219999-12.263952-0.679997-30.263882-2.331991-53.111792-0.151999-2.099992-0.321999-4.253983-0.493998-6.433975 17.521932 12.245952 37.761852 27.289893 59.373768 45.825821a698.157273 698.157273 0 0 1 30.759879 27.907891 670.437381 670.437381 0 0 1-34.367865 30.333881 826.89477 826.89477 0 0 1-30.171882 23.703908c-8.121968 6.135976-16.411936 12.103953-24.783904 17.975929 1.395995-20.701919 1.809993-37.135855 2.015993-48.57781 0.074-6.133976 0.124-10.835958 0.111999-14.005945l0.008-4.803981-0.04 4.803981a982.94216 982.94216 0 0 1-0.203999 14.003945c-0.281999 11.503955-0.805997 28.05589-2.357991 48.909809-2.033992 1.423994-4.037984 2.875989-6.081976 4.283983-21.281917 14.653943-43.223831 28.389889-65.781743 41.359839a948.110296 948.110296 0 0 1-65.399745 34.681864 947.650298 947.650298 0 0 1-65.399744-34.681864 960.546248 960.546248 0 0 1-62.809755-39.359846 948.104296 948.104296 0 0 1-2.663989-73.957712c-0.044-26.019898 0.877997-51.891797 2.927988-77.647696 0.195999-2.46999 0.451998-4.927981 0.667998-7.395971a963.452237 963.452237 0 0 1 41.179839-26.509897 1059.85986 1059.85986 0 0 1 12.023953-7.177972l4.143984-2.43599-4.157984 2.40999a1033.541963 1033.541963 0 0 0-12.071953 7.099973c-9.805962 5.897977-23.833907 14.475943-41.06384 26.035898 0.897996-10.18796 1.923992-20.349921 3.177988-30.451881a826.266772 826.266772 0 0 1 5.441979-37.981852 670.251382 670.251382 0 0 1 9.083964-44.921824c13.923946 4.015984 27.143894 8.335967 39.547846 12.68595 15.017941 5.321979 28.931887 10.725958 41.629837 16.115937a883.14655 883.14655 0 0 1 27.743892 12.385952c-1.963992 0.933996-3.933985 1.871993-5.817978 2.783989-20.615919 9.993961-36.431858 18.595927-47.163815 24.537904a1026.44999 1026.44999 0 0 0-12.183953 6.905973l-4.165983 2.395991 4.181983-2.369991c2.747989-1.575994 6.859973-3.857985 12.227952-6.825973 10.769958-5.869977 26.637896-14.367944 47.305816-24.219906 2.013992-0.959996 4.111984-1.941992 6.213975-2.925988 2.103992 0.983996 4.201984 1.965992 6.213976 2.925988 20.667919 9.851962 36.537857 18.349928 47.305815 24.219906a1018.230023 1018.230023 0 0 1 12.227953 6.825973l4.181983 2.369991-4.165983-2.395991a1026.44999 1026.44999 0 0 0-12.183953-6.905973c-10.731958-5.941977-26.547896-14.543943-47.163816-24.537904-1.883993-0.911996-3.853985-1.847993-5.817977-2.783989a883.14655 883.14655 0 0 1 27.743892-12.385952c12.69995-5.389979 26.613896-10.793958 41.629837-16.115937 14.289944-5.00998 29.637884-9.993961 45.937821-14.495943 4.251983 16.367936 7.59197 32.139874 10.397959 47.021816 2.899989 15.667939 5.17598 30.419881 6.857973 44.111828a885.196542 885.196542 0 0 1 3.145988 30.219882c-1.791993-1.233995-3.587986-2.47199-5.319979-3.647986-18.959926-12.85595-34.321866-22.251913-44.831825-28.575888a1030.215976 1030.215976 0 0 0-12.073953-7.099973l-4.157984-2.40999s1.413994 0.823997 4.147984 2.42999z m-0.014 298.450834a782.604943 782.604943 0 0 1-35.607861-14.293944 906.21646 906.21646 0 0 1-17.97993-7.863969 968.450217 968.450217 0 0 0 53.99179-28.711888c20.729919-12.025953 41.07384-24.945903 60.837762-38.511849-1.863993 18.763927-4.615982 40.045844-8.981965 63.347752a697.267276 697.267276 0 0 1-8.799966 40.627841 666.959395 666.959395 0 0 1-43.45983-14.593943z m-192.707247-25.743899a781.302948 781.302948 0 0 1-5.423979-37.983852 909.016449 909.016449 0 0 1-2.179991-19.481924 948.808294 948.808294 0 0 0 51.787797 32.337874 969.780212 969.780212 0 0 0 53.991789 28.711888 906.21646 906.21646 0 0 1-17.979929 7.863969 780.296952 780.296952 0 0 1-35.607861 14.293944 671.701376 671.701376 0 0 1-37.025856 12.645951 668.667388 668.667388 0 0 1-7.56197-38.38785z m-28.07989-92.965637a862.432631 862.432631 0 0 1-15.783939-11.637954 826.89477 826.89477 0 0 1-30.171882-23.703908 670.437381 670.437381 0 0 1-34.367866-30.333881 698.157273 698.157273 0 0 1 30.75988-27.907891c17.99593-15.43394 35.047863-28.455889 50.369803-39.451846a951.256284 951.256284 0 0 0-2.933988 71.939719 968.392217 968.392217 0 0 0 2.127992 61.095761z m-101.439604-86.663661c-17.229933-17.94593-33.029871-36.879856-46.05782-57.021778-6.449975-10.089961-12.281952-20.44592-16.871934-31.137878-4.581982-10.673958-7.997969-21.707915-9.205964-32.761872-1.259995-11.025957 0-22.069914 4.431982-31.691876 0.265999-0.605998 0.591998-1.179995 0.881997-1.771993 0.283999-0.537998 0.635998-1.289995 0.859996-1.651994l1.105996-1.849993 0.551998-0.921996 0.541998-0.771997c0.707997-1.031996 1.411994-2.073992 2.273991-3.101988 0.791997-1.053996 1.671993-2.035992 2.56399-3.005988 3.557986-3.893985 7.71997-7.245972 12.235952-10.061961a79.29169 79.29169 0 0 1 9.695962-5.12998c5.663978 16.761935 21.485916 28.845887 40.159843 28.845888 22.235913 0 40.445842-17.123933 42.235835-38.897848 10.049961 0.725997 19.903922 1.913993 29.497885 3.367986 17.035933 2.60399 33.22587 6.125976 48.63181 10.117961-3.947985 15.177941-7.333971 30.587881-10.26396 46.14582-2.389991 12.80195-4.521982 25.7039-6.261975 38.691848a893.222511 893.222511 0 0 0-4.231984 39.171847c-0.179999 2.099992-0.307999 4.209984-0.473998 6.311976a926.67038 926.67038 0 0 0-51.361799 39.087847 712.611216 712.611216 0 0 0-31.473877 27.461893 584.605716 584.605716 0 0 1-19.465924-19.423924z m101.915602 227.77911c-24.159906 5.947977-48.459811 10.15996-72.421717 11.371956-11.963953 0.537998-23.853907 0.427998-35.409862-0.953997-11.539955-1.371995-22.807911-3.929985-32.991871-8.417967-5.06998-2.249991-9.885961-4.947981-14.149945-8.255968-2.111992-1.669993-4.173984-3.401987-5.997976-5.343979-1.895993-1.881993-3.543986-4.001984-5.023981-5.987976-0.381999-0.515998-0.781997-1.185995-1.169995-1.769993l-0.585998-0.907997-0.293999-0.453998c-0.122-0.181999-0.024-0.05-0.175999-0.309999-0.613998-1.165995-1.347995-2.271991-1.869993-3.485986-0.573998-1.187995-1.143996-2.375991-1.597994-3.617986-0.517998-1.211995-0.925996-2.46799-1.321994-3.725986-1.593994-5.03398-2.413991-10.31796-2.59399-15.637939-0.383999-10.661958 1.599994-21.357917 4.681981-31.541876 3.167988-10.18596 7.377971-19.951922 12.215953-29.209886 9.713962-18.529928 21.503916-35.217862 33.687868-50.471803 10.755958-13.423948 21.889914-25.755899 33.055871-37.083855 11.185956 11.021957 22.849911 21.671915 34.873864 31.999875 9.889961 8.471967 19.999922 16.767935 30.377881 24.769903a883.612548 883.612548 0 0 0 28.009891 20.53792 856.676654 856.676654 0 0 0 3.815985 34.541865 795.936891 795.936891 0 0 0 6.279975 38.687849 710.281225 710.281225 0 0 0 8.687966 39.955844 588.937699 588.937699 0 0 1-20.081921 5.311979z m244.255046 54.483787c-7.115972 18.179929-15.673939 36.731857-26.863895 54.409788-5.601978 8.819966-11.953953 17.347932-19.189926 25.185901-7.279972 7.75997-15.547939 14.827942-24.973902 19.825923-4.697982 2.50199-9.683962 4.433983-14.841942 5.569978-1.287995 0.287999-2.57799 0.561998-3.887985 0.717997-1.299995 0.227999-2.61599 0.327999-3.929984 0.425999-1.311995 0.155999-2.63599 0.072-3.953985 0.125999-0.301999-0.004-0.137999 0.016-0.357999 0l-0.537998-0.028-1.077995-0.054c-0.701997-0.044-1.479994-0.054-2.119992-0.127999-2.45799-0.287999-5.11998-0.655997-7.69797-1.357995-2.59399-0.607998-5.12398-1.529994-7.62597-2.52199-4.99598-2.039992-9.739962-4.861981-14.225945-8.127968-8.973965-6.573974-16.825934-15.053941-23.783907-24.359905-0.641997-0.857997-1.235995-1.759993-1.863992-2.63199 10.027961-7.75797 16.511936-19.875922 16.511935-33.533869 0-23.425908-18.989926-42.415834-42.413834-42.415834a42.399834 42.399834 0 0 0-10.39396 1.335995 486.992098 486.992098 0 0 1-6.731973-21.349917 603.541642 603.541642 0 0 1-5.445979-20.045922 711.203222 711.203222 0 0 0 38.945848-12.453951 797.976883 797.976883 0 0 0 36.643857-13.905946 855.13866 855.13866 0 0 0 31.811875-13.961945 859.954641 859.954641 0 0 0 31.811876 13.961945 798.858879 798.858879 0 0 0 36.643857 13.905946c14.957942 5.24398 30.009883 10.029961 45.143824 14.203945-4.223984 15.34594-9.337964 31.167878-15.593939 47.207815z m173.265323-213.203167c12.183952 15.25394 23.971906 31.943875 33.687868 50.471803 4.837981 9.259964 9.047965 19.025926 12.215952 29.209886 3.081988 10.18396 5.06798 20.877918 4.681982 31.541876-0.179999 5.319979-0.999996 10.603959-2.59399 15.637939-0.395998 1.257995-0.803997 2.51399-1.321995 3.725986-0.453998 1.239995-1.023996 2.429991-1.597993 3.617986-0.521998 1.211995-1.255995 2.317991-1.869993 3.485986-0.151999 0.259999-0.054 0.128-0.175999 0.309999l-0.293999 0.453998-0.585998 0.907997c-0.387998 0.583998-0.787997 1.253995-1.169995 1.769993-1.477994 1.985992-3.125988 4.105984-5.023981 5.987976-1.823993 1.941992-3.885985 3.671986-5.997976 5.343979-4.263983 3.307987-9.079965 6.003977-14.149945 8.255968-10.18196 4.487982-21.451916 7.045972-32.989871 8.417967-11.555955 1.381995-23.445908 1.489994-35.411862 0.953996-23.959906-1.209995-48.259811-5.423979-72.419717-11.371955a607.431627 607.431627 0 0 1-26.551896-7.163972 712.337217 712.337217 0 0 0 8.051968-41.02584 925.544385 925.544385 0 0 0 8.169968-64.02375c1.737993-1.195995 3.499986-2.361991 5.22998-3.567986a889.014527 889.014527 0 0 0 31.807876-23.251909c10.377959-8.001969 20.48792-16.295936 30.377881-24.769903 12.023953-10.32796 23.687907-20.979918 34.873864-31.999875 11.165956 11.325956 22.301913 23.657908 33.057871 37.081855z m-42.569834-49.631806a713.589213 713.589213 0 0 0-31.473877-27.461893 925.888383 925.888383 0 0 0-60.361764-45.367823 926.302382 926.302382 0 0 0-9.103965-74.963707c-2.50799-14.999941-5.593978-30.881879-9.541962-47.419815 17.281932-4.695982 35.645861-8.811966 55.045785-11.777954 19.301925-2.921989 39.647845-4.785981 60.547763-3.931984 10.437959 0.453998 20.997918 1.681993 31.397877 4.033984 10.35796 2.423991 20.609919 6.051976 29.641885 11.713954 4.515982 2.815989 8.677966 6.165976 12.235952 10.061961 0.891997 0.969996 1.773993 1.951992 2.56399 3.005988 0.861997 1.029996 1.565994 2.069992 2.273991 3.101988l0.541998 0.771997 0.551998 0.921996 1.105995 1.849993c0.221999 0.363999 0.575998 1.115996 0.859997 1.651994 0.291999 0.591998 0.617998 1.165995 0.881997 1.771993 4.431983 9.621962 5.691978 20.665919 4.431982 31.691876-0.765997 7.015973-2.427991 14.021945-4.705981 20.933918a42.373834 42.373834 0 0 0-11.597955-1.645993c-23.425908 0-42.415834 18.989926-42.415834 42.415834a42.279835 42.279835 0 0 0 12.415951 29.983883c-8.087968 10.037961-16.751935 19.777923-25.831899 29.233886a590.355694 590.355694 0 0 1-19.463924 19.423924z" fill="#CDCCCA" p-id="12954"></path><path d="M486.806098 548.955856m-42.415834 0a42.415834 42.415834 0 1 0 84.831669 0 42.415834 42.415834 0 1 0-84.831669 0Z" fill="#CDCCCA" p-id="12955"></path><path d="M651.863454 512l-0.008 4.803981a1023.276003 1023.276003 0 0 1-0.112 14.005946c-0.219999 12.263952-0.679997 30.263882-2.331991 53.111792a927.418377 927.418377 0 0 1-9.659962 82.05368c-5.259979 31.473877-13.033949 66.805739-26.131898 104.021593-6.649974 18.547928-14.743942 37.571853-25.6759 56.013781-5.445979 9.219964-11.665954 18.263929-18.975926 26.745896-7.361971 8.405967-15.889938 16.301936-26.175897 22.233913-5.12598 2.961988-10.707958 5.369979-16.635935 6.899973-1.479994 0.385998-2.969988 0.751997-4.493983 0.995996-1.509994 0.311999-3.043988 0.489998-4.583982 0.657998-1.537994 0.223999-3.095988 0.201999-4.647982 0.305998-0.056 0.008-0.579998 0.024-0.719997 0.016l-0.539998-0.01-1.079996-0.016c-0.735997-0.022-1.401995 0-2.199991-0.055999-12.81995-0.713997-24.767903-5.581978-35.091863-12.653951-10.35596-7.049972-19.191925-16.017937-26.989894-25.721899-7.821969-9.721962-14.559943-20.293921-20.63792-31.271878-12.085953-22.013914-21.535916-45.665822-29.377885-70.033727-7.811969-24.395905-13.819946-49.605806-18.645927-75.197706-2.399991-12.79995-4.499982-25.7059-6.277976-38.687849a872.204593 872.204593 0 0 1-4.239983-39.169847 962.688239 962.688239 0 0 1-3.481987-79.089691c0.056-26.323897 1.219995-52.797794 3.465987-79.003691a890.168523 890.168523 0 0 1 4.231983-39.171847c1.739993-12.989949 3.871985-25.889899 6.261976-38.693849 4.817981-25.5939 10.855958-50.795802 18.629927-75.205706 7.849969-24.371905 17.299932-48.023812 29.389885-70.039727 6.081976-10.979957 12.80595-21.563916 20.63792-31.283877 7.80397-9.707962 16.643935-18.675927 27.005894-25.7299 5.17798-3.501986 10.713958-6.545974 16.623935-8.723966 5.893977-2.185991 12.109953-3.555986 18.357929-3.927985 0.779997-0.056 1.561994-0.042 2.34199-0.063999 0.833997 0 1.443994-0.054 2.455991-0.008l2.153991 0.109999 1.075996 0.056 1.199996 0.132c1.607994 0.167999 3.203987 0.355999 4.691981 0.665997 1.523994 0.243999 3.015988 0.611998 4.495983 0.995996 5.933977 1.531994 11.521955 3.941985 16.647935 6.905973 10.28996 5.935977 18.821926 13.835946 26.183897 22.245913 7.307971 8.483967 13.537947 17.525932 18.971926 26.755896 10.929957 18.445928 19.023926 37.469854 25.6719 56.019781 13.097949 37.219855 20.855919 72.555717 26.119898 104.029593a928.614373 928.614373 0 0 1 9.649962 82.05568c1.651994 22.847911 2.111992 40.84784 2.331991 53.111792 0.074 6.133976 0.124 10.835958 0.112 14.005946l0.006 4.803981z m0 0l-0.04-4.803981a1014.220038 1014.220038 0 0 0-0.203999-14.003946c-0.299999-12.261952-0.875997-30.253882-2.67799-53.079792a893.868508 893.868508 0 0 0-3.775985-37.723853c-1.681993-13.693947-3.957985-28.445889-6.857973-44.111828-5.897977-31.275878-14.105945-66.46174-28.32589-102.915598-7.119972-18.177929-15.679939-36.729857-26.869895-54.403787-5.611978-8.811966-11.955953-17.341932-19.193925-25.173902-7.275972-7.75797-15.543939-14.821942-24.963902-19.815922-4.695982-2.49999-9.677962-4.429983-14.829942-5.565979-1.287995-0.285999-2.57799-0.561998-3.885985-0.717997-1.319995-0.231999-2.57599-0.321999-3.821985-0.415998l-0.941997-0.082-1.073995-0.018-2.153992-0.034c-0.425998-0.012-1.253995 0.058-1.861993 0.084-0.659997 0.044-1.317995 0.048-1.973992 0.12-10.547959 0.973996-20.741919 5.403979-29.661884 12.007953-8.967965 6.569974-16.815934 15.047941-23.769907 24.351905-6.963973 9.319964-13.015949 19.547924-18.529928 30.177882-10.927957 21.353917-19.425924 44.501826-26.351897 68.397733-6.989973 23.891907-12.497951 48.58581-16.705935 73.713712a826.662771 826.662771 0 0 0-5.441978 37.981851 872.380592 872.380592 0 0 0-3.897985 38.42585c-2.047992 25.755899-2.971988 51.627798-2.927989 77.647697a946.156304 946.156304 0 0 0 2.911989 77.563697 891.436518 891.436518 0 0 0 3.889985 38.42785c1.499994 12.74995 3.315987 25.419901 5.423978 37.983851 4.199984 25.131902 9.735962 49.817805 16.691935 73.721712 6.927973 23.897907 15.42994 47.047816 26.363897 68.405733 5.515978 10.629958 11.553955 20.871918 18.529928 30.189882 6.957973 9.305964 14.807942 17.787931 23.783907 24.359905 4.485982 3.265987 9.229964 6.087976 14.225944 8.127968 2.50399 0.991996 5.03198 1.913993 7.625971 2.52199 2.57799 0.701997 5.23798 1.069996 7.69797 1.357995 0.637998 0.074 1.417994 0.084 2.119991 0.128l1.077996 0.053999 0.539998 0.028c0.217999 0.016 0.054-0.004 0.357999 0 1.315995-0.052 2.64199 0.03 3.953984-0.125999 1.313995-0.098 2.62799-0.197999 3.929985-0.425998 1.309995-0.155999 2.60199-0.431998 3.887985-0.717998 5.15798-1.135996 10.14396-3.067988 14.841942-5.569978 9.425963-4.99998 17.695931-12.065953 24.973902-19.825922 7.235972-7.835969 13.587947-16.365936 19.189925-25.185902 11.189956-17.677931 19.747923-36.229858 26.865895-54.409788 7.101972-18.209929 12.73595-36.143859 17.267933-53.413791 4.565982-17.263933 8.129968-33.847868 11.045957-49.509806 5.873977-31.333878 8.825966-59.021769 10.623958-81.837681 1.799993-22.825911 2.375991-40.817841 2.67799-53.079792 0.116-6.131976 0.195999-10.833958 0.203999-14.003946l0.036-4.805981z" fill="#E65439" p-id="12956"></path><path d="M581.931727 390.874473l4.157984 2.409991a1005.416073 1005.416073 0 0 1 12.071952 7.099972c10.511959 6.323975 25.871899 15.719939 44.831825 28.575888a926.366381 926.366381 0 0 1 66.231742 49.391807c24.625904 20.291921 51.337799 44.689825 77.019699 74.641709 12.73795 15.033941 25.163902 31.555877 35.66986 50.243804 5.263979 9.325964 9.983961 19.235925 13.673947 29.805883 3.599986 10.577959 6.173976 21.913914 6.167976 33.785868 0.002 5.919977-0.703997 11.957953-2.343991 17.85793a47.889813 47.889813 0 0 1-1.383995 4.389983c-0.483998 1.461994-1.097996 2.879989-1.721993 4.297984-0.573998 1.441994-1.373995 2.781989-2.057992 4.177983a9.473963 9.473963 0 0 1-0.347998 0.631998l-0.277999 0.461998-0.553998 0.925996c-0.385998 0.625998-0.701997 1.213995-1.147996 1.875993-7.029973 10.745958-17.215933 18.657927-28.503888 24.063906-11.283956 5.441979-23.465908 8.609966-35.771861 10.513959-12.329952 1.911993-24.853903 2.45999-37.401854 2.233991-25.107902-0.539998-50.313803-4.181984-75.339705-9.571962-25.035902-5.433979-49.869805-12.83395-74.445709-21.451917a798.932879 798.932879 0 0 1-36.645857-13.905945 868.944606 868.944606 0 0 1-36.041859-15.913938 962.148242 962.148242 0 0 1-70.233726-36.529857 950.158288 950.158288 0 0 1-66.68774-42.503834 889.014527 889.014527 0 0 1-31.807875-23.25191c-10.377959-8.001969-20.48792-16.295936-30.377882-24.769903-19.755923-16.969934-38.561849-34.797864-55.813782-53.73779-17.181933-18.981926-32.939871-38.993848-45.95982-60.471764-6.465975-10.755958-12.271952-21.871915-16.773935-33.513869-4.503982-11.613955-7.853969-23.751907-8.781965-36.251858-0.441998-6.235976-0.309999-12.553951 0.757997-18.759927 1.051996-6.197976 2.973988-12.263952 5.777977-17.86193 0.339999-0.703997 0.743997-1.373995 1.113996-2.059992 0.415998-0.721997 0.675997-1.277995 1.221995-2.129992l1.171995-1.807993 0.585998-0.905996 0.713997-0.971996c0.951996-1.307995 1.909993-2.59599 2.923989-3.729986 0.971996-1.197995 2.035992-2.305991 3.111988-3.397987 4.291983-4.371983 9.173964-8.005969 14.303944-10.963957 10.28596-5.941977 21.391916-9.381963 32.355874-11.553955 11.003957-2.085992 21.947914-2.957988 32.657872-3.051988 21.439916-0.241999 41.959836 2.261991 61.35176 5.777978 38.781849 7.267972 73.261714 18.215929 103.149597 29.393885a928.978371 928.978371 0 0 1 75.887704 32.669872c20.615919 9.993961 36.431858 18.595927 47.163816 24.537904a992.906121 992.906121 0 0 1 12.183952 6.907974l4.163984 2.39599z m0 0l-4.181984-2.367991c-2.747989-1.577994-6.859973-3.859985-12.227952-6.825973-10.769958-5.871977-26.637896-14.367944-47.305815-24.219905a893.784509 893.784509 0 0 0-34.557865-15.593939c-12.69995-5.389979-26.613896-10.793958-41.629838-16.117937-30.033883-10.529959-64.611748-21.013918-103.291596-26.925895-19.301925-2.921989-39.647845-4.785981-60.547764-3.931985-10.437959 0.453998-20.997918 1.683993-31.397877 4.035984-10.35796 2.421991-20.609919 6.051976-29.643884 11.711955-4.513982 2.815989-8.675966 6.165976-12.235952 10.05996a39.799845 39.799845 0 0 0-2.56399 3.005989c-0.861997 1.029996-1.565994 2.069992-2.273992 3.103987l-0.541997 0.773997-0.551998 0.919997-1.105996 1.849993c-0.221999 0.361999-0.575998 1.115996-0.859997 1.651993-0.291999 0.591998-0.617998 1.165995-0.881996 1.771993-4.431983 9.621962-5.691978 20.663919-4.431983 31.691876 1.207995 11.051957 4.623982 22.087914 9.205964 32.759872 4.589982 10.691958 10.421959 21.047918 16.871934 31.137879 13.029949 20.139921 28.827887 39.075847 46.05782 57.021777 17.195933 17.99993 35.82786 35.115863 55.483784 51.3218a826.89477 826.89477 0 0 0 30.171882 23.703907 871.894594 871.894594 0 0 0 31.329877 22.587912c21.281917 14.653943 43.223831 28.389889 65.781743 41.359838a945.206308 945.206308 0 0 0 68.627732 36.259859 892.750513 892.750513 0 0 0 35.225863 15.843938 781.148949 781.148949 0 0 0 35.605861 14.293944c23.865907 8.927965 48.011812 16.477936 72.191718 22.407912 24.159906 5.947977 48.459811 10.15996 72.421717 11.371956 11.963953 0.537998 23.853907 0.427998 35.409861-0.953996 11.539955-1.371995 22.807911-3.929985 32.989872-8.417968 5.06998-2.249991 9.885961-4.947981 14.149944-8.255967 2.111992-1.669993 4.173984-3.401987 5.997977-5.343979 1.895993-1.881993 3.543986-4.001984 5.02398-5.987977 0.381999-0.515998 0.781997-1.185995 1.169996-1.769993l0.585997-0.907997 0.293999-0.453998c0.122-0.181999 0.024-0.05 0.176-0.309999 0.613998-1.165995 1.347995-2.271991 1.869992-3.485986 0.573998-1.187995 1.143996-2.375991 1.597994-3.617986 0.517998-1.211995 0.925996-2.46799 1.321995-3.725985 1.593994-5.03398 2.413991-10.31796 2.59399-15.637939 0.383999-10.661958-1.599994-21.357917-4.681982-31.541877-3.167988-10.18596-7.377971-19.951922-12.215952-29.209886-9.713962-18.529928-21.503916-35.217862-33.687869-50.471803-12.219952-15.25394-24.933903-29.099886-37.623853-41.659837-12.667951-12.585951-25.247901-23.963906-37.353854-34.321866-24.197905-20.753919-46.701818-37.155855-65.563744-50.121804-18.865926-12.971949-34.159867-22.465912-44.627825-28.857887a1010.402053 1010.402053 0 0 0-12.025953-7.177972c-2.733989-1.601994-4.143984-2.431991-4.143984-2.431991z" fill="#2A81C2" p-id="12957"></path><path d="M442.070273 390.874473l-4.141984 2.435991c-2.739989 1.591994-6.771974 4.011984-12.025953 7.177972-10.467959 6.389975-25.761899 15.885938-44.627825 28.857887-18.861926 12.963949-41.365838 29.367885-65.561744 50.121804-12.107953 10.35596-24.687904 21.733915-37.355854 34.321866-12.68995 12.557951-25.401901 26.405897-37.623853 41.659837-12.181952 15.25394-23.971906 31.943875-33.685869 50.471803-4.837981 9.259964-9.047965 19.025926-12.215952 29.209886-3.081988 10.18396-5.06598 20.877918-4.681982 31.541877 0.179999 5.319979 0.999996 10.603959 2.59399 15.637939 0.395998 1.257995 0.803997 2.51399 1.321995 3.725985 0.453998 1.239995 1.023996 2.429991 1.597994 3.617986 0.521998 1.211995 1.255995 2.317991 1.869992 3.485986 0.151999 0.259999 0.054 0.128 0.176 0.309999l0.291999 0.451998 0.585997 0.907997c0.387998 0.583998 0.787997 1.253995 1.169996 1.769993 1.477994 1.985992 3.125988 4.105984 5.02398 5.987977 1.823993 1.941992 3.885985 3.671986 5.997977 5.343979 4.263983 3.307987 9.079965 6.003977 14.149944 8.255967 10.18196 4.487982 21.451916 7.045972 32.989872 8.417968 11.555955 1.381995 23.445908 1.489994 35.409861 0.953996 23.959906-1.209995 48.261811-5.423979 72.421717-11.371956 24.179906-5.929977 48.325811-13.477947 72.191718-22.407912a782.604943 782.604943 0 0 0 35.607861-14.293944 894.278507 894.278507 0 0 0 35.223863-15.843938 945.576306 945.576306 0 0 0 68.627732-36.259859c22.555912-12.969949 44.499826-26.705896 65.781743-41.359838a871.894594 871.894594 0 0 0 31.329877-22.587912 826.89477 826.89477 0 0 0 30.171882-23.703907c19.655923-16.207937 38.28985-33.32187 55.483784-51.3218 17.229933-17.94593 33.029871-36.879856 46.05782-57.021777 6.449975-10.089961 12.281952-20.44592 16.871934-31.137879 4.581982-10.671958 7.997969-21.707915 9.205964-32.759872 1.259995-11.027957 0-22.069914-4.431983-31.691876-0.265999-0.605998-0.591998-1.179995-0.881996-1.771993-0.283999-0.537998-0.635998-1.289995-0.859997-1.651993l-1.105996-1.849993-0.551998-0.919997-0.541997-0.773997c-0.707997-1.033996-1.411994-2.073992-2.273992-3.103987a40.267843 40.267843 0 0 0-2.56399-3.005989c-3.557986-3.893985-7.71997-7.245972-12.235952-10.05996-9.033965-5.661978-19.285925-9.291964-29.641884-11.711955-10.401959-2.351991-20.959918-3.581986-31.397877-4.035984-20.899918-0.853997-41.245839 1.009996-60.547764 3.931985-38.679849 5.913977-73.257714 16.397936-103.291596 26.925895-15.017941 5.321979-28.931887 10.725958-41.629838 16.117937a892.410514 892.410514 0 0 0-34.557865 15.593939c-20.667919 9.853962-36.537857 18.349928-47.307815 24.219905a1005.878071 1005.878071 0 0 0-12.227952 6.825973l-4.183984 2.365991z m0 0l4.165984-2.39599a1020.544013 1020.544013 0 0 1 12.183952-6.907974c10.731958-5.941977 26.547896-14.543943 47.163816-24.537904a927.886375 927.886375 0 0 1 75.887704-32.669872c29.887883-11.177956 64.369749-22.125914 103.149597-29.393885 19.389924-3.515986 39.911844-6.019976 61.35176-5.777978 10.709958 0.094 21.653915 0.965996 32.657872 3.051988 10.961957 2.171992 22.069914 5.611978 32.355874 11.553955 5.12998 2.957988 10.011961 6.591974 14.303944 10.963957 1.075996 1.091996 2.137992 2.199991 3.111988 3.397987 1.013996 1.133996 1.971992 2.419991 2.923989 3.729986l0.713997 0.971996 0.585998 0.905996 1.171995 1.807993c0.543998 0.853997 0.803997 1.409994 1.219995 2.129992 0.371999 0.685997 0.775997 1.357995 1.115996 2.059992 2.801989 5.597978 4.723982 11.663954 5.777977 17.86193 1.067996 6.205976 1.199995 12.523951 0.757997 18.759927-0.927996 12.499951-4.277983 24.637904-8.781965 36.251858-4.501982 11.641955-10.30596 22.757911-16.773935 33.513869-13.021949 21.477916-28.779888 41.491838-45.95982 60.471764-17.251933 18.939926-36.057859 36.767856-55.813782 53.73779-9.889961 8.471967-19.999922 16.767935-30.377882 24.769903a889.014527 889.014527 0 0 1-31.807875 23.25191 950.888286 950.888286 0 0 1-66.68774 42.503834 962.148242 962.148242 0 0 1-70.233726 36.529857 868.944606 868.944606 0 0 1-36.041859 15.913938 798.858879 798.858879 0 0 1-36.643857 13.905945c-24.575904 8.617966-49.409807 16.017937-74.445709 21.451917-25.025902 5.389979-50.231804 9.031965-75.339706 9.571962-12.545951 0.225999-25.071902-0.321999-37.401853-2.233991-12.303952-1.903993-24.487904-5.07198-35.771861-10.513959-11.287956-5.405979-21.473916-13.317948-28.503888-24.063906-0.447998-0.661997-0.761997-1.249995-1.147996-1.875993l-0.553998-0.925996-0.277999-0.461998a9.473963 9.473963 0 0 1-0.347998-0.631998c-0.685997-1.395995-1.483994-2.735989-2.057992-4.177983-0.625998-1.417994-1.237995-2.835989-1.721993-4.297984a47.889813 47.889813 0 0 1-1.383995-4.389983c-1.639994-5.899977-2.345991-11.937953-2.343991-17.85793-0.006-11.871954 2.56799-23.207909 6.167976-33.785868 3.689986-10.569959 8.409967-20.47992 13.673947-29.805883 10.505959-18.687927 22.93191-35.207862 35.66986-50.243804 25.6819-29.951883 52.391795-54.349788 77.019699-74.641709a926.208382 926.208382 0 0 1 66.231742-49.391807c18.959926-12.85595 34.319866-22.251913 44.831825-28.575888a1005.416073 1005.416073 0 0 1 12.071952-7.099972l4.153984-2.409991z" fill="#3AB49C" p-id="12958"></path><path d="M512 512m-42.415834 0a42.415834 42.415834 0 1 0 84.831668 0 42.415834 42.415834 0 1 0-84.831668 0Z" fill="#494A4A" p-id="12959"></path><path d="M267.000957 291.94086m-42.415834 0a42.415834 42.415834 0 1 0 84.831668 0 42.415834 42.415834 0 1 0-84.831668 0Z" fill="#1669AD" p-id="12960"></path><path d="M236.643076 295.938844a3.999984 3.999984 0 0 1-3.999985-3.999984c0-18.943926 15.41394-34.357866 34.359866-34.357866a3.999984 3.999984 0 0 1 0 7.999969c-14.535943 0-26.359897 11.823954-26.359897 26.357897a3.999984 3.999984 0 0 1-3.999984 3.999984z" fill="#2A81C2" p-id="12961"></path><path d="M815.998813 427.170331m-42.415835 0a42.415834 42.415834 0 1 0 84.831669 0 42.415834 42.415834 0 1 0-84.831669 0Z" fill="#1B9D7E" p-id="12962"></path><path d="M427.170331 802.168867m-42.415834 0a42.415834 42.415834 0 1 0 84.831669 0 42.415834 42.415834 0 1 0-84.831669 0Z" fill="#BE3D27" p-id="12963"></path><path d="M396.81245 806.168851a3.999984 3.999984 0 0 1-3.999984-3.999984c0-18.945926 15.41594-34.357866 34.359865-34.357866a3.999984 3.999984 0 0 1 0 7.999968c-14.535943 0-26.359897 11.823954-26.359897 26.357898a3.999984 3.999984 0 0 1-3.999984 3.999984z" fill="#E65439" p-id="12964"></path><path d="M785.640931 431.170316a3.999984 3.999984 0 0 1-3.999984-3.999985c0-18.945926 15.41394-34.357866 34.359865-34.357865a3.999984 3.999984 0 0 1 0 7.999968c-14.535943 0-26.359897 11.823954-26.359897 26.357897a3.999984 3.999984 0 0 1-3.999984 3.999985z" fill="#3AB49C" p-id="12965"></path></svg>